<svg width="47" height="56" viewBox="0 0 47 56" fill="none" xmlns="http://www.w3.org/2000/svg">
<path d="M25.355 12.3062V15.6263L32.8726 8.69748V4.98047L25.355 12.3062Z" fill="url(#paint0_linear_7_29866)"/>
<path d="M25.355 17.2867V20.6067L32.8726 13.6779V9.96094L25.355 17.2867Z" fill="url(#paint1_linear_7_29866)"/>
<path d="M25.355 22.8072V26.1272L32.8726 19.1985V15.4814L25.355 22.8072Z" fill="url(#paint2_linear_7_29866)"/>
<path d="M25.355 27.8238V31.1438L32.8726 24.2151V20.498L25.355 27.8238Z" fill="url(#paint3_linear_7_29866)"/>
<path d="M25.355 33.0201V36.3401L32.8726 29.4113V25.6943L25.355 33.0201Z" fill="url(#paint4_linear_7_29866)"/>
<path d="M24.2655 39.0833H28.1877L32.8727 34.4641V30.7832L24.2655 39.0833Z" fill="url(#paint5_linear_7_29866)"/>
<path d="M28.9867 39.0473C30.9115 38.8669 32.8726 39.1917 32.8726 39.1917V35.5107L28.9867 39.0473Z" fill="url(#paint6_linear_7_29866)"/>
<path d="M33.8533 39.5887C33.8533 39.5887 39.4461 40.7435 41.4435 42.151V11.2601L33.8533 5.30566V39.5887Z" fill="url(#paint7_linear_7_29866)"/>
<path d="M23.1396 39.1185H26.6261V20.7139L23.1396 16.8164V39.1185Z" fill="url(#paint8_linear_7_29866)"/>
<path d="M14.6051 21.7609V24.1426L22.0864 19.0904V16.4199L14.6051 21.7609Z" fill="url(#paint9_linear_7_29866)"/>
<path d="M14.6051 25.5499V27.9317L22.0864 22.8433V20.1729L14.6051 25.5499Z" fill="url(#paint10_linear_7_29866)"/>
<path d="M14.6051 28.9425V31.2881L22.0864 26.2359V23.5654L14.6051 28.9425Z" fill="url(#paint11_linear_7_29866)"/>
<path d="M14.6051 32.6231V35.0049L22.0864 29.9527V27.2461L14.6051 32.6231Z" fill="url(#paint12_linear_7_29866)"/>
<path d="M14.6051 36.3038V38.6856L22.0864 33.6334V30.9629L14.6051 36.3038Z" fill="url(#paint13_linear_7_29866)"/>
<path d="M14.6051 39.9855V41.5733L22.0864 37.315V34.6445L14.6051 39.9855Z" fill="url(#paint14_linear_7_29866)"/>
<path d="M19.98 39.9132C19.98 39.9132 21.469 39.408 21.9048 39.5163L22.0501 38.4697L19.98 39.9132Z" fill="url(#paint15_linear_7_29866)"/>
<path d="M13.1161 42.3666L14.6051 41.5727V29.8443L13.1161 27.9316V42.3666Z" fill="url(#paint16_linear_7_29866)"/>
<path d="M8.75806 30.4941V32.1541L12.4261 29.0867V27.3545L8.75806 30.4941Z" fill="url(#paint17_linear_7_29866)"/>
<path d="M8.75806 32.7675V34.4276L12.4261 31.3601V29.6279L8.75806 32.7675Z" fill="url(#paint18_linear_7_29866)"/>
<path d="M8.75806 35.1132V36.7733L12.4261 33.7058V31.9736L8.75806 35.1132Z" fill="url(#paint19_linear_7_29866)"/>
<path d="M8.75806 37.3505V39.0106L12.4261 35.9431V34.2109L8.75806 37.3505Z" fill="url(#paint20_linear_7_29866)"/>
<path d="M8.75806 39.5879V41.2479L12.4261 38.1804V36.4482L8.75806 39.5879Z" fill="url(#paint21_linear_7_29866)"/>
<path d="M8.75806 41.8613V43.5213L12.4261 40.4539V38.7217L8.75806 41.8613Z" fill="url(#paint22_linear_7_29866)"/>
<path d="M8.75806 44.3515V44.965L12.4261 42.6193V41.2119L8.75806 44.3515Z" fill="url(#paint23_linear_7_29866)"/>
<path d="M9.19385 46.8411C25.6455 37.6749 40.3176 45.3976 40.3176 45.3976C40.3176 45.3976 35.9959 40.8506 25.4639 40.8506C14.8956 40.8506 9.19385 46.8411 9.19385 46.8411Z" fill="url(#paint24_radial_7_29866)"/>
<path d="M21.2149 4.22223C12.1356 9.7797 9.52075 17.9716 9.52075 17.9716C9.52075 17.9716 20.1253 0.324787 37.1944 0.43305C37.1944 0.43305 36.0686 0 34.0348 0C31.311 0 26.8803 0.757836 21.2149 4.22223Z" fill="url(#paint25_radial_7_29866)"/>
<path d="M26.3719 3.93351C17.1837 8.51662 12.3535 16.095 12.3535 16.095C12.3535 16.095 19.0722 6.74833 29.2047 4.11395C39.3008 1.47956 40.2451 5.19657 40.2451 5.19657C40.3177 2.95915 38.6471 1.33521 35.3786 1.33521C33.1269 1.29912 30.1126 2.05696 26.3719 3.93351Z" fill="url(#paint26_radial_7_29866)"/>
<path d="M29.4589 3.96966C31.4563 3.50052 34.6159 3.24791 35.7054 5.52142C37.1581 5.73795 38.6471 5.91838 40.1361 6.09882C40.245 5.48533 40.245 5.16055 40.245 5.16055C39.555 3.60879 37.5213 3.13965 35.3786 3.13965C33.0543 3.13965 30.5847 3.68096 29.4589 3.96966Z" fill="url(#paint27_radial_7_29866)"/>
<path d="M24.5923 49.0072C21.1422 49.8732 9.30284 52.0746 5.8164 49.765C3.52113 48.2445 6.99463 44.805 8.06806 43.7384V41.9701C4.41456 44.7424 -0.183656 48.1644 0.0056598 53.3376C0.187245 57.4877 15.0409 57.0907 34.0711 49.9815C45.3294 45.7757 47 39.1553 47 39.1553C40.2087 45.5788 24.5923 49.0072 24.5923 49.0072Z" fill="url(#paint28_radial_7_29866)"/>
<path d="M35.7053 5.52148C35.778 5.62975 35.8143 5.7741 35.8506 5.91845L39.446 8.76936C39.8092 7.61456 40.0271 6.71237 40.0997 6.09888C38.647 5.91845 37.158 5.73801 35.7053 5.52148Z" fill="#3D803D"/>
<defs>
<linearGradient id="paint0_linear_7_29866" x1="32.8726" y1="10.3034" x2="25.355" y2="10.3034" gradientUnits="userSpaceOnUse">
<stop stop-color="#470608"/>
<stop offset="1" stop-color="#B41F24"/>
</linearGradient>
<linearGradient id="paint1_linear_7_29866" x1="32.8726" y1="15.2838" x2="25.355" y2="15.2838" gradientUnits="userSpaceOnUse">
<stop stop-color="#470608"/>
<stop offset="1" stop-color="#B41F24"/>
</linearGradient>
<linearGradient id="paint2_linear_7_29866" x1="32.8726" y1="20.8043" x2="25.355" y2="20.8043" gradientUnits="userSpaceOnUse">
<stop stop-color="#470608"/>
<stop offset="1" stop-color="#B41F24"/>
</linearGradient>
<linearGradient id="paint3_linear_7_29866" x1="32.8726" y1="25.8209" x2="25.355" y2="25.8209" gradientUnits="userSpaceOnUse">
<stop stop-color="#470608"/>
<stop offset="1" stop-color="#B41F24"/>
</linearGradient>
<linearGradient id="paint4_linear_7_29866" x1="32.8726" y1="31.0172" x2="25.355" y2="31.0172" gradientUnits="userSpaceOnUse">
<stop stop-color="#470608"/>
<stop offset="1" stop-color="#B41F24"/>
</linearGradient>
<linearGradient id="paint5_linear_7_29866" x1="32.8727" y1="34.9333" x2="24.2655" y2="34.9333" gradientUnits="userSpaceOnUse">
<stop stop-color="#470608"/>
<stop offset="1" stop-color="#B41F24"/>
</linearGradient>
<linearGradient id="paint6_linear_7_29866" x1="32.8726" y1="37.3512" x2="28.9867" y2="37.3512" gradientUnits="userSpaceOnUse">
<stop stop-color="#470608"/>
<stop offset="1" stop-color="#B41F24"/>
</linearGradient>
<linearGradient id="paint7_linear_7_29866" x1="33.8453" y1="23.7258" x2="41.4417" y2="23.7258" gradientUnits="userSpaceOnUse">
<stop stop-color="#F75E23"/>
<stop offset="1" stop-color="#B41F24"/>
</linearGradient>
<linearGradient id="paint8_linear_7_29866" x1="23.136" y1="27.9659" x2="26.6252" y2="27.9659" gradientUnits="userSpaceOnUse">
<stop stop-color="#F75E23"/>
<stop offset="1" stop-color="#B41F24"/>
</linearGradient>
<linearGradient id="paint9_linear_7_29866" x1="22.0864" y1="20.2813" x2="14.6051" y2="20.2813" gradientUnits="userSpaceOnUse">
<stop stop-color="#470608"/>
<stop offset="1" stop-color="#B41F24"/>
</linearGradient>
<linearGradient id="paint10_linear_7_29866" x1="22.0864" y1="24.0523" x2="14.6051" y2="24.0523" gradientUnits="userSpaceOnUse">
<stop stop-color="#470608"/>
<stop offset="1" stop-color="#B41F24"/>
</linearGradient>
<linearGradient id="paint11_linear_7_29866" x1="22.0864" y1="27.4268" x2="14.6051" y2="27.4268" gradientUnits="userSpaceOnUse">
<stop stop-color="#470608"/>
<stop offset="1" stop-color="#B41F24"/>
</linearGradient>
<linearGradient id="paint12_linear_7_29866" x1="22.0864" y1="31.1255" x2="14.6051" y2="31.1255" gradientUnits="userSpaceOnUse">
<stop stop-color="#470608"/>
<stop offset="1" stop-color="#B41F24"/>
</linearGradient>
<linearGradient id="paint13_linear_7_29866" x1="22.0864" y1="34.8242" x2="14.6051" y2="34.8242" gradientUnits="userSpaceOnUse">
<stop stop-color="#470608"/>
<stop offset="1" stop-color="#B41F24"/>
</linearGradient>
<linearGradient id="paint14_linear_7_29866" x1="22.0864" y1="38.1089" x2="14.6051" y2="38.1089" gradientUnits="userSpaceOnUse">
<stop stop-color="#470608"/>
<stop offset="1" stop-color="#B41F24"/>
</linearGradient>
<linearGradient id="paint15_linear_7_29866" x1="22.0501" y1="39.1915" x2="19.98" y2="39.1915" gradientUnits="userSpaceOnUse">
<stop stop-color="#470608"/>
<stop offset="1" stop-color="#B41F24"/>
</linearGradient>
<linearGradient id="paint16_linear_7_29866" x1="13.1145" y1="35.1481" x2="14.6047" y2="35.1481" gradientUnits="userSpaceOnUse">
<stop stop-color="#F75E23"/>
<stop offset="1" stop-color="#B41F24"/>
</linearGradient>
<linearGradient id="paint17_linear_7_29866" x1="12.4261" y1="29.7543" x2="8.75806" y2="29.7543" gradientUnits="userSpaceOnUse">
<stop stop-color="#470608"/>
<stop offset="1" stop-color="#B41F24"/>
</linearGradient>
<linearGradient id="paint18_linear_7_29866" x1="12.4261" y1="32.0277" x2="8.75806" y2="32.0277" gradientUnits="userSpaceOnUse">
<stop stop-color="#470608"/>
<stop offset="1" stop-color="#B41F24"/>
</linearGradient>
<linearGradient id="paint19_linear_7_29866" x1="12.4261" y1="34.3734" x2="8.75806" y2="34.3734" gradientUnits="userSpaceOnUse">
<stop stop-color="#470608"/>
<stop offset="1" stop-color="#B41F24"/>
</linearGradient>
<linearGradient id="paint20_linear_7_29866" x1="12.4261" y1="36.6108" x2="8.75806" y2="36.6108" gradientUnits="userSpaceOnUse">
<stop stop-color="#470608"/>
<stop offset="1" stop-color="#B41F24"/>
</linearGradient>
<linearGradient id="paint21_linear_7_29866" x1="12.4261" y1="38.8481" x2="8.75806" y2="38.8481" gradientUnits="userSpaceOnUse">
<stop stop-color="#470608"/>
<stop offset="1" stop-color="#B41F24"/>
</linearGradient>
<linearGradient id="paint22_linear_7_29866" x1="12.4261" y1="41.1215" x2="8.75806" y2="41.1215" gradientUnits="userSpaceOnUse">
<stop stop-color="#470608"/>
<stop offset="1" stop-color="#B41F24"/>
</linearGradient>
<linearGradient id="paint23_linear_7_29866" x1="12.4261" y1="43.0885" x2="8.75806" y2="43.0885" gradientUnits="userSpaceOnUse">
<stop stop-color="#470608"/>
<stop offset="1" stop-color="#B41F24"/>
</linearGradient>
<radialGradient id="paint24_radial_7_29866" cx="0" cy="0" r="1" gradientUnits="userSpaceOnUse" gradientTransform="translate(24.7402 44.9034) scale(11.2113 7.28074)">
<stop stop-color="#B3DD3D"/>
<stop offset="1" stop-color="#3D803D"/>
</radialGradient>
<radialGradient id="paint25_radial_7_29866" cx="0" cy="0" r="1" gradientUnits="userSpaceOnUse" gradientTransform="translate(23.3396 8.9836) scale(11.1646 13.1747)">
<stop stop-color="#B3DD3D"/>
<stop offset="1" stop-color="#3D803D"/>
</radialGradient>
<radialGradient id="paint26_radial_7_29866" cx="0" cy="0" r="1" gradientUnits="userSpaceOnUse" gradientTransform="translate(26.3068 8.7176) scale(10.7842 12.6947)">
<stop stop-color="#B3DD3D"/>
<stop offset="1" stop-color="#3D803D"/>
</radialGradient>
<radialGradient id="paint27_radial_7_29866" cx="0" cy="0" r="1" gradientUnits="userSpaceOnUse" gradientTransform="translate(34.8696 4.6225) scale(3.96203 3.92372)">
<stop stop-color="#B3DD3D"/>
<stop offset="1" stop-color="#3D803D"/>
</radialGradient>
<radialGradient id="paint28_radial_7_29866" cx="0" cy="0" r="1" gradientUnits="userSpaceOnUse" gradientTransform="translate(23.5089 46.9078) scale(17.6665 16.1854)">
<stop stop-color="#B3DD3D"/>
<stop offset="1" stop-color="#3D803D"/>
</radialGradient>
</defs>
</svg>
